<svg viewBox="0 0 24 24" fill="currentColor" xmlns="http://www.w3.org/2000/svg">
  <path d="M12.06 10.81L6.11 4.86c-1.56-1.56-4.09-1.56-5.66 0-1.56 1.56-1.56 4.09 0 5.66l5.95 5.95c.39.39.39 1.02 0 1.41l-4.24 4.24c-1.56 1.56-1.56 4.09 0 5.66 1.56 1.56 4.09 1.56 5.66 0l4.24-4.24c.39-.39 1.02-.39 1.41 0l5.95 5.95c1.56 1.56 4.09 1.56 5.66 0 1.56-1.56 1.56-4.09 0-5.66l-5.95-5.95c-.39-.39-.39-1.02 0-1.41l4.24-4.24c1.56-1.56 1.56-4.09 0-5.66-1.56-1.56-4.09-1.56-5.66 0l-4.24 4.24c-.39.39-1.02.39-1.41 0z"/>
</svg>